<svg width="902" height="947" viewBox="0 0 902 947" fill="none" xmlns="http://www.w3.org/2000/svg">
<path d="M258.719 121.596V565.075L566.778 947V482.97L258.719 121.596Z" fill="url(#paint0_linear_1008_2)"/>
<path d="M257.016 119.418H0V946.621H258.341L258.531 564.886L258.72 565.075V121.596L257.016 119.418Z" fill="url(#paint1_linear_1008_2)"/>
<path d="M847.848 91.1024H782.315V156.635H847.848V91.1024Z" fill="url(#paint2_linear_1008_2)"/>
<path d="M901.257 37.6904H847.847V91.1011H901.257V37.6904Z" fill="url(#paint3_linear_1008_2)"/>
<path d="M847.846 0H810.155V37.6906H847.846V0Z" fill="url(#paint4_linear_1008_2)"/>
<path d="M825.593 192.62H740.458V277.756H825.593V192.62Z" fill="url(#paint5_linear_1008_2)"/>
<path d="M740.46 352.569V277.661H657.029V192.621H740.46V119.418H568.485V484.58L566.78 482.971V947L825.5 946.621V352.569H740.46Z" fill="url(#paint6_linear_1008_2)"/>
<defs>
<linearGradient id="paint0_linear_1008_2" x1="412.764" y1="947" x2="412.764" y2="121.553" gradientUnits="userSpaceOnUse">
<stop offset="1.33195e-07" stop-color="#141414"/>
<stop offset="0.0466" stop-color="#222222"/>
<stop offset="0.1623" stop-color="#3F3F3F"/>
<stop offset="0.2774" stop-color="#535353"/>
<stop offset="0.3907" stop-color="#606060"/>
<stop offset="0.5" stop-color="#646464"/>
<stop offset="0.6093" stop-color="#606060"/>
<stop offset="0.7226" stop-color="#535353"/>
<stop offset="0.8377" stop-color="#3F3F3F"/>
<stop offset="0.9534" stop-color="#222222"/>
<stop offset="1" stop-color="#141414"/>
</linearGradient>
<linearGradient id="paint1_linear_1008_2" x1="129.362" y1="933.059" x2="129.362" y2="290.18" gradientUnits="userSpaceOnUse">
<stop stop-color="#050505"/>
<stop offset="0.5282" stop-color="#282728"/>
<stop offset="1" stop-color="#4B494B"/>
</linearGradient>
<linearGradient id="paint2_linear_1008_2" x1="815.053" y1="156.651" x2="815.053" y2="91.092" gradientUnits="userSpaceOnUse">
<stop offset="1.33195e-07" stop-color="#3C3C3C"/>
<stop offset="0.4196" stop-color="#444444" stop-opacity="0.958"/>
<stop offset="1" stop-color="#4B4B4B" stop-opacity="0.9"/>
</linearGradient>
<linearGradient id="paint3_linear_1008_2" x1="874.523" y1="91.0907" x2="874.523" y2="37.7084" gradientUnits="userSpaceOnUse">
<stop offset="1.33195e-07" stop-color="#3C3C3C"/>
<stop offset="0.4196" stop-color="#444444" stop-opacity="0.958"/>
<stop offset="1" stop-color="#4B4B4B" stop-opacity="0.9"/>
</linearGradient>
<linearGradient id="paint4_linear_1008_2" x1="828.977" y1="37.7086" x2="828.977" y2="0" gradientUnits="userSpaceOnUse">
<stop offset="1.33195e-07" stop-color="#3C3C3C"/>
<stop offset="0.4196" stop-color="#444444" stop-opacity="0.958"/>
<stop offset="1" stop-color="#4B4B4B" stop-opacity="0.9"/>
</linearGradient>
<linearGradient id="paint5_linear_1008_2" x1="784.753" y1="930.712" x2="782.743" y2="143.185" gradientUnits="userSpaceOnUse">
<stop stop-color="#050505"/>
<stop offset="1" stop-color="#4B4B4B"/>
</linearGradient>
<linearGradient id="paint6_linear_1008_2" x1="696.888" y1="930.937" x2="694.88" y2="143.409" gradientUnits="userSpaceOnUse">
<stop stop-color="#050505"/>
<stop offset="1" stop-color="#4B4B4B"/>
</linearGradient>
</defs>
</svg>
